<svg xmlns="http://www.w3.org/2000/svg" width="17.969" height="10" viewBox="0 0 17.969 10">
  <metadata><?xpacket begin="﻿" id="W5M0MpCehiHzreSzNTczkc9d"?>
<x:xmpmeta xmlns:x="adobe:ns:meta/" x:xmptk="Adobe XMP Core 5.6-c142 79.160924, 2017/07/13-01:06:39        ">
   <rdf:RDF xmlns:rdf="http://www.w3.org/1999/02/22-rdf-syntax-ns#">
      <rdf:Description rdf:about=""/>
   </rdf:RDF>
</x:xmpmeta>
                                                                                                    
                                                                                                    
                                                                                                    
                                                                                                    
                                                                                                    
                                                                                                    
                                                                                                    
                                                                                                    
                                                                                                    
                                                                                                    
                                                                                                    
                                                                                                    
                                                                                                    
                                                                                                    
                                                                                                    
                                                                                                    
                                                                                                    
                                                                                                    
                                                                                                    
                                                                                                    
                           
<?xpacket end="w"?></metadata>
<defs>
    <style>
      .cls-1 {
        fill: #fff;
        fill-rule: evenodd;
      }
    </style>
  </defs>
  <path id="Rounded_Rectangle_11" data-name="Rounded Rectangle 11" class="cls-1" d="M646.281,6340.44h-2.919a0.66,0.66,0,0,0-.581.34s-1.164,2.1-1.538,2.81c-1.006,1.9-1.657,1.3-1.657.42v-3.05a0.971,0.971,0,0,0-.981-0.96h-2.194a1.769,1.769,0,0,0-1.553.71s1.114-.18,1.114,1.29c0,0.37.02,1.42,0.037,2.3a0.641,0.641,0,0,1-.631.65,0.662,0.662,0,0,1-.5-0.21,18.812,18.812,0,0,1-2.217-3.95,0.588,0.588,0,0,0-.559-0.35h-2.651a0.436,0.436,0,0,0-.454.43,0.4,0.4,0,0,0,.028.16c0.8,2.17,4.274,8.98,8.233,8.98h1.668a0.654,0.654,0,0,0,.658-0.65v-0.99a0.637,0.637,0,0,1,.646-0.63,0.652,0.652,0,0,1,.443.17l2,1.84a1,1,0,0,0,.66.26h2.62c1.264,0,1.264-.86.575-1.53-0.485-.47-2.234-2.28-2.234-2.28a0.872,0.872,0,0,1-.07-1.15c0.566-.73,1.491-1.92,1.883-2.43C646.641,6341.92,647.612,6340.44,646.281,6340.44Z" transform="translate(-629 -6340)"/>
</svg>
