<svg xmlns="http://www.w3.org/2000/svg" width="48" height="34.5" viewBox="0 0 48 34.5">
    <defs>
        <style>
            .cls-1{fill:#00bdca;fill-rule:evenodd}
        </style>
    </defs>
    <path class="cls-1" d="M6 34.5a6 6 0 1 1 6-6 6.005 6.005 0 0 1-6 6zm0-9a3 3 0 1 0 3 3 3 3 0 0 0-3-3zm12-6a6 6 0 1 1 6-6 6.006 6.006 0 0 1-6 6zm0-9a3 3 0 1 0 3 3 3 3 0 0 0-3-3zM42 12a6 6 0 1 1 6-6 6.005 6.005 0 0 1-6 6zm0-9a3 3 0 1 0 3 3 3 3 0 0 0-3-3zM30 28.5a6 6 0 1 1 6-6 6.005 6.005 0 0 1-6 6zm0-9a3 3 0 1 0 3 3 3 3 0 0 0-3-3zm-3.668 1.75a1.507 1.507 0 0 1-.9-.3l-4.666-3.5a1.5 1.5 0 1 1 1.8-2.4l4.667 3.5a1.5 1.5 0 0 1-.903 2.7zm6.3-.88a1.453 1.453 0 0 1-.88-.29 1.494 1.494 0 0 1-.332-2.09l6.727-9.25a1.5 1.5 0 0 1 2.425 1.76l-6.726 9.26a1.5 1.5 0 0 1-1.213.61zm-23.7 5.96a1.5 1.5 0 0 1-1.171-2.44l6.13-7.66a1.5 1.5 0 0 1 2.341 1.87l-6.129 7.67a1.525 1.525 0 0 1-1.169.56z"/>
</svg>
